<svg width="1372" height="504" viewBox="0 0 1372 504" xmlns="http://www.w3.org/2000/svg"><title>Untitled 2</title><g fill="none" fill-rule="evenodd"><path d="M614 160s-50 11.122-50 24.678v149.804c0 2.433 17.606 4.518 17.606 4.518s17.605-2.085 17.605-4.518V198.233c0-3.823 14.789-7.299 14.789-7.299s14.789 3.476 14.789 7.647v135.901c0 2.433 17.605 4.518 17.605 4.518S664 336.915 664 334.482V184.678C664 171.122 614 160 614 160m148.606 130.147v-19.294C781.62 267.345 795 258.224 795 247.349v-62.442C795 171.226 745 160 745 160s-50 11.226-50 24.907v62.442c0 10.875 13.38 19.996 32.394 23.504v19.294C708.38 293.655 695 302.776 695 313.3v62.442C695 389.774 745 401 745 401s50-11.226 50-25.258V313.3c0-10.524-13.38-19.645-32.394-23.153zM745 372s-15-3.636-15-8v-36.364c0-4 15-7.636 15-7.636s15 3.636 15 7.636v36.728c0 4-15 7.636-15 7.636zm0-128s-15-3.636-15-7.636v-36.728c0-4 15-7.636 15-7.636s15 3.636 15 8v36.364c0 4-15 7.636-15 7.636zm132.185-2h-47.574c-1.219 0-3.611 14.832-3.611 14.832 0-.001 2.392 15.168 3.611 15.168h47.574c1.22 0 3.815-14.832 3.815-14.832S878.405 242 877.185 242m117.209 37.302s-17.605 2.112-17.605 4.223v20.411c0 4.224-14.789 7.743-14.789 7.743s-14.789-3.519-14.789-7.39V198.711c0-3.871 14.789-7.39 14.789-7.39s14.789 3.519 14.789 7.743v20.411c0 2.111 17.605 4.223 17.605 4.223s17.606-2.112 17.606-4.223v-34.488c0-13.725-50-24.987-50-24.987s-50 11.262-50 24.987v133.026C912 331.738 962 343 962 343s50-11.262 50-24.987v-34.488c0-2.111-17.606-4.223-17.606-4.223M1092 160s-50 11.262-50 24.987v133.026c0 13.725 50 24.987 50 24.987s50-11.262 50-24.987V184.987c0-13.725-50-24.987-50-24.987zm0 150s-15-3.509-15-7.368V197.368c0-3.859 15-7.368 15-7.368s15 3.509 15 7.719v104.913c0 3.859-15 7.368-15 7.368zm131-150s-50 11.122-50 24.678v149.804c0 2.433 17.606 4.518 17.606 4.518s17.605-2.085 17.605-4.518V198.233c0-3.823 14.789-7.299 14.789-7.299s14.789 3.476 14.789 7.647v135.901c0 2.433 17.605 4.518 17.605 4.518s17.606-2.085 17.606-4.518V184.678c0-13.556-50-24.678-50-24.678m144.798 3.951h-29.417v-21.386s6.654-7.713 14.708-7.713h14.709c2.101 0 4.202-15.426 4.202-15.426S1369.899 104 1367.798 104h-14.709c-27.315 0-49.727 24.892-49.727 24.892v35.059h-17.51c-2.101 0-3.852 15.426-3.852 15.426s1.751 15.777 3.852 15.777h17.51v141.288c0 2.455 17.51 4.558 17.51 4.558s17.509-2.103 17.509-4.558V195.154h29.417c2.101 0 4.202-15.426 4.202-15.426s-2.101-15.777-4.202-15.777" fill="#393A37"/><path d="M230.314 435.533L90.138 358.549 64.039 141.883 0 97.042l36.229 300.389L230.314 503.54v-68.007" fill="#EBAF2A"/><path d="M247.314 503.078V435.07l139.322-76.521 26.112-216.778 64.039-44.841-36.242 300.501-193.231 105.647" fill="#129353"/><path d="M11.108 80.183l63.697 44.602L238.552 67l163.328 57.745 63.697-44.602L238.611 0 11.108 80.183" fill="#5373AB"/><path d="M369.387 348l-131 72-131-71-25-205 156-55 156 55-25 204" fill="#CA4038"/><path d="M170.31 346h-40.505l108.582-241.052L350.81 346h-37.543l-23.842-54.965h-97.339L170.31 346zm68.077-163.711L206.376 258h69.049l-37.038-75.711z" fill="#FFF"/></g></svg>